<svg xmlns="http://www.w3.org/2000/svg" xmlns:xlink="http://www.w3.org/1999/xlink" width="663" height="139" viewBox="0 0 663 139">
    <defs>
        <path id="a" d="M.06 138.94h662.592V.353H.06z"/>
        <path id="c" d="M.608 138.94h118.288V.431H.608z"/>
    </defs>
    <g fill="none" fill-rule="evenodd">
        <path fill="#E3682B" d="M92.258 33.745H46.237V.353H0v138.576h92.258c12.153 0 22.038-9.852 22.038-21.97V55.747c0-12.118-9.885-22.002-22.038-22.002zm-46.131 74.466h21.967V64.459H46.127v43.752z" mask="url(#b)"/>
        <path fill="#000" d="M640.647 33.777H570.61c-12.117 0-21.967 9.852-21.967 22.005v61.177c0 12.118 9.85 22.002 21.967 22.002h70.037c12.121 0 22.005-9.884 22.005-22.002V55.782c0-12.153-9.884-22.005-22.005-22.005zm-45.982 74.434h21.93V64.459h-21.93v43.752z" mask="url(#b)"/>
        <path fill="#000" d="M317.338 108.211h-21.963V64.459h21.963l.113 15.784 45.87-.042V55.747c0-12.118-9.811-21.97-21.963-21.97H271.32c-12.155 0-21.966 9.852-21.966 21.97v61.212c0 12.118 9.811 21.97 21.966 21.97h70.038c12.152 0 21.963-9.852 21.963-21.97V92.431h-45.87l-.113 15.78M371.705 138.929h46.166V33.777h-46.166z"/>
        <g transform="translate(122)">
            <path fill="#000" d="M72.804 138.929h46.092V33.745H72.804zM66.141 33.745H46.884V.431H.608v116.641C.608 129.186 10.455 139 22.572 139h43.569v-29.873H46.884V62.922h19.257V33.745" mask="url(#d)"/>
        </g>
        <path fill="#000" d="M472.126 138.929v-74.47h21.967v74.47h45.987V55.747c0-12.118-9.815-21.97-21.967-21.97h-91.965v105.152h45.978"/>
    </g>
</svg>